<svg width="1471" height="469" viewBox="0 0 1471 469" fill="none" xmlns="http://www.w3.org/2000/svg">
<path d="M39.2622 137.975H341.608L345.08 138.433L348.285 139.578L352.024 141.639L354.161 143.471L356.565 146.677L358.167 150.799L358.435 154.234V308.812L358.167 313.163L357.099 316.598L355.229 319.575L353.093 321.865L350.956 323.468L347.217 325.3L342.943 326.216L340.005 326.445H35.79L32.0508 325.758L29.3799 324.842L26.4419 323.01L23.5039 320.491L21.3672 317.514L20.2988 314.995L19.7646 312.018V151.944L20.833 147.593L22.7026 143.7L22.1685 143.929H20.5659L20.2988 143.471L23.2368 143.242L23.771 142.326L25.1064 141.181L28.3115 139.807L31.5166 138.662L34.1875 138.204L39.2622 137.975ZM37.1255 147.822L34.7217 148.509L32.585 150.341L31.5166 152.173L31.2495 153.089L30.9824 163.623V306.98L31.2495 311.56L32.0508 313.621L33.3862 314.766L35.79 316.14L37.6597 316.598L41.3989 316.827H103.898L104.165 316.598L104.699 309.499L106.302 301.713L108.438 294.614L110.842 288.43L113.513 282.934L117.252 276.522L119.923 272.858L123.128 268.965L126.066 265.759L128.47 263.469L134.079 258.66L137.818 256.141L141.558 253.851L146.365 251.332L152.775 248.584L158.384 246.752L164.527 245.149L172.273 243.775L177.882 243.088L187.764 242.401L197.379 243.088L206.728 244.462L215.007 246.294L221.952 248.355L229.964 251.332L235.306 253.851L240.915 257.057L244.387 259.347L247.859 261.866L251.064 264.385L252.934 266.217L256.139 269.423L259.344 273.316L262.549 277.896L265.487 283.163L268.158 289.346L270.028 295.301L271.096 300.11L271.897 307.438L272.432 316.827H334.129L340.54 316.598L343.21 315.682L344.813 314.766L346.148 313.163L346.683 311.56V152.631L345.614 150.57L343.745 148.738L342.409 148.051L340.807 147.822H37.1255Z" fill="#FD4858"/>
<path d="M181.354 154.234H195.243L200.584 154.921L205.392 156.295L209.933 158.127L214.206 160.417L217.945 162.936L220.616 164.997L222.753 166.829L226.225 170.722L228.629 174.157L231.033 178.509L232.635 182.631L233.704 186.982L233.971 188.814V197.516L233.169 201.867L231.834 205.989L229.697 210.34L226.759 214.92L224.088 217.897L221.15 220.874L219.281 222.477L214.74 225.454L211.001 227.515L206.728 229.347L202.721 230.721L197.646 231.866L194.441 232.324L191.503 232.553H184.292L178.683 231.866L173.074 230.492L167.465 228.431L162.925 226.141L159.453 223.851L155.98 221.103L153.844 219.271L150.906 216.065L148.502 212.859L146.365 209.424L144.496 205.073L143.427 201.638L142.626 197.745V188.585L143.961 182.86L145.831 178.051L147.968 174.157L150.639 170.493L153.042 167.745L156.248 164.768L159.72 162.02L165.329 158.814L169.869 156.753L174.944 155.15L178.683 154.463L181.354 154.234Z" fill="#FD4858"/>
<path d="M383.274 272.858H429.213L431.884 273.316L434.822 274.919L436.425 276.751L437.76 279.27V319.117L436.692 321.407L434.822 323.697L431.884 325.3L431.35 325.529L428.412 325.758H384.609L382.206 325.3L379.535 323.926L377.665 322.323L376.597 320.491L376.33 319.346V278.812L377.665 276.522L379 275.148L381.938 273.316L383.274 272.858Z" fill="#FD4858"/>
<path d="M384.342 145.532H426.275L431.35 145.761L433.487 146.677L435.891 148.509L437.493 151.257L437.76 152.173V191.791L436.425 194.539L435.089 196.142L432.151 197.745L430.816 198.203L427.878 198.432H386.212L383.007 198.203L380.336 197.058L377.932 195.226L376.597 193.165L376.33 192.02V151.486L377.131 149.883L378.733 148.051L380.87 146.448L382.473 145.761L384.342 145.532Z" fill="#FD4858"/>
<path d="M406.778 208.737H423.337L430.015 208.966L433.487 210.111L435.891 211.943L437.493 214.691L438.027 217.668V225.225L437.76 255.225L436.425 257.973L434.822 259.805L432.686 261.179L431.617 261.408L428.145 261.637H383.541L381.404 261.179L378.733 259.118L376.864 257.057L376.33 255.683V214.691L377.932 212.401L379.268 211.027L382.206 209.424L384.075 208.966L406.778 208.737Z" fill="#FD4858"/>
<path d="M462.333 272.858H508.539L511.21 273.316L513.881 274.919L515.75 276.751L516.819 279.499V318.43L516.285 320.72L514.949 322.781L512.545 324.613L510.142 325.529L507.471 325.758H463.401L460.997 325.3L458.059 323.468L456.189 321.407L455.655 320.033V278.125L456.724 276.751L458.326 275.148L461.531 273.087L462.333 272.858Z" fill="#FD4858"/>
<path d="M482.898 208.737H501.328L509.073 208.966L511.744 209.653L513.881 211.027L515.75 212.859L516.552 214.462L516.819 215.607V254.538L516.285 256.828L514.415 259.347L512.545 260.721L510.676 261.408L507.738 261.637H462.867L460.73 261.179L458.593 259.805L456.457 257.744L455.655 256.141V214.233L456.724 212.63L458.059 211.256L460.73 209.882L463.401 208.966L482.898 208.737Z" fill="#FD4858"/>
<path d="M464.469 145.074H507.471L510.943 145.532L513.614 146.677L515.483 148.509L516.552 150.57L516.819 151.944V190.417L516.285 192.936L515.216 194.768L513.347 196.371L512.011 197.058L508.272 197.745H463.668L460.463 197.058L458.326 195.684L456.457 193.852L455.655 192.249V150.57L456.991 148.28L459.127 146.448L461.264 145.532L464.469 145.074Z" fill="#FD4858"/>
<path d="M26.9761 140.265L27.7773 140.494L24.0381 143.013L22.7026 143.929H20.5659L20.2988 143.471L23.2368 143.242L23.771 142.326L25.1064 141.181L26.9761 140.265Z" fill="#FEFEFE"/>
<path d="M701.735 223.102H678.404C677.978 220.083 677.108 217.402 675.794 215.058C674.48 212.679 672.793 210.655 670.734 208.986C668.674 207.317 666.295 206.038 663.596 205.151C660.933 204.263 658.038 203.819 654.913 203.819C649.267 203.819 644.349 205.222 640.158 208.027C635.968 210.797 632.719 214.845 630.411 220.172C628.102 225.463 626.948 231.891 626.948 239.455C626.948 247.232 628.102 253.766 630.411 259.057C632.754 264.348 636.021 268.343 640.212 271.042C644.402 273.741 649.249 275.09 654.754 275.09C657.843 275.09 660.702 274.682 663.33 273.865C665.993 273.048 668.354 271.859 670.414 270.296C672.474 268.698 674.178 266.763 675.528 264.49C676.913 262.217 677.871 259.625 678.404 256.713L701.735 256.82C701.131 261.827 699.622 266.656 697.207 271.308C694.828 275.925 691.614 280.062 687.566 283.719C683.553 287.342 678.759 290.218 673.184 292.349C667.644 294.444 661.376 295.491 654.381 295.491C644.651 295.491 635.95 293.29 628.28 288.886C620.645 284.483 614.608 278.109 610.169 269.763C605.766 261.418 603.564 251.315 603.564 239.455C603.564 227.558 605.801 217.438 610.276 209.092C614.75 200.747 620.822 194.391 628.493 190.023C636.163 185.619 644.793 183.418 654.381 183.418C660.702 183.418 666.561 184.305 671.959 186.081C677.392 187.857 682.204 190.449 686.394 193.858C690.585 197.232 693.994 201.369 696.621 206.269C699.285 211.17 700.989 216.781 701.735 223.102ZM754.816 295.598C746.542 295.598 739.386 293.84 733.349 290.325C727.348 286.773 722.713 281.837 719.446 275.516C716.179 269.16 714.546 261.791 714.546 253.411C714.546 244.959 716.179 237.572 719.446 231.251C722.713 224.895 727.348 219.959 733.349 216.443C739.386 212.892 746.542 211.116 754.816 211.116C763.09 211.116 770.228 212.892 776.229 216.443C782.266 219.959 786.918 224.895 790.185 231.251C793.452 237.572 795.086 244.959 795.086 253.411C795.086 261.791 793.452 269.16 790.185 275.516C786.918 281.837 782.266 286.773 776.229 290.325C770.228 293.84 763.09 295.598 754.816 295.598ZM754.922 278.02C758.686 278.02 761.829 276.955 764.35 274.824C766.872 272.658 768.772 269.71 770.05 265.982C771.364 262.253 772.021 258.009 772.021 253.251C772.021 248.492 771.364 244.249 770.05 240.52C768.772 236.791 766.872 233.844 764.35 231.678C761.829 229.511 758.686 228.428 754.922 228.428C751.123 228.428 747.926 229.511 745.334 231.678C742.777 233.844 740.842 236.791 739.528 240.52C738.25 244.249 737.61 248.492 737.61 253.251C737.61 258.009 738.25 262.253 739.528 265.982C740.842 269.71 742.777 272.658 745.334 274.824C747.926 276.955 751.123 278.02 754.922 278.02ZM832.532 246.699V294H809.841V212.182H831.467V226.617H832.426C834.237 221.859 837.273 218.094 841.534 215.325C845.796 212.519 850.963 211.116 857.035 211.116C862.717 211.116 867.671 212.359 871.897 214.845C876.123 217.331 879.407 220.882 881.751 225.499C884.095 230.08 885.267 235.548 885.267 241.905V294H862.575V245.953C862.61 240.946 861.332 237.04 858.74 234.234C856.147 231.393 852.578 229.973 848.033 229.973C844.979 229.973 842.28 230.63 839.936 231.944C837.628 233.258 835.817 235.175 834.503 237.697C833.225 240.183 832.568 243.183 832.532 246.699ZM925.843 246.699V294H903.151V212.182H924.778V226.617H925.736C927.547 221.859 930.584 218.094 934.845 215.325C939.106 212.519 944.273 211.116 950.346 211.116C956.028 211.116 960.981 212.359 965.207 214.845C969.433 217.331 972.718 220.882 975.062 225.499C977.405 230.08 978.577 235.548 978.577 241.905V294H955.885V245.953C955.921 240.946 954.643 237.04 952.05 234.234C949.458 231.393 945.889 229.973 941.344 229.973C938.29 229.973 935.591 230.63 933.247 231.944C930.939 233.258 929.128 235.175 927.814 237.697C926.535 240.183 925.878 243.183 925.843 246.699ZM1033.75 295.598C1025.33 295.598 1018.09 293.893 1012.02 290.484C1005.98 287.04 1001.33 282.175 998.06 275.889C994.793 269.568 993.159 262.093 993.159 253.464C993.159 245.048 994.793 237.661 998.06 231.305C1001.33 224.948 1005.93 219.994 1011.86 216.443C1017.82 212.892 1024.82 211.116 1032.84 211.116C1038.24 211.116 1043.27 211.987 1047.92 213.727C1052.61 215.431 1056.69 218.006 1060.17 221.45C1063.68 224.895 1066.42 229.227 1068.37 234.447C1070.33 239.632 1071.3 245.705 1071.3 252.665V258.897H1002.21V244.835H1049.94C1049.94 241.567 1049.23 238.673 1047.81 236.152C1046.39 233.631 1044.42 231.66 1041.9 230.239C1039.41 228.783 1036.52 228.055 1033.22 228.055C1029.77 228.055 1026.72 228.854 1024.05 230.452C1021.43 232.015 1019.37 234.128 1017.88 236.791C1016.38 239.419 1015.62 242.349 1015.58 245.58V258.95C1015.58 262.999 1016.33 266.496 1017.82 269.444C1019.35 272.391 1021.5 274.664 1024.27 276.262C1027.04 277.86 1030.32 278.659 1034.12 278.659C1036.64 278.659 1038.95 278.304 1041.05 277.594C1043.14 276.884 1044.93 275.818 1046.43 274.398C1047.92 272.977 1049.05 271.237 1049.84 269.178L1070.82 270.562C1069.76 275.605 1067.57 280.009 1064.27 283.773C1061 287.501 1056.78 290.413 1051.59 292.509C1046.44 294.568 1040.5 295.598 1033.75 295.598ZM1123.08 295.598C1114.7 295.598 1107.49 293.822 1101.45 290.271C1095.45 286.685 1090.83 281.713 1087.6 275.357C1084.41 269 1082.81 261.685 1082.81 253.411C1082.81 245.03 1084.42 237.679 1087.65 231.358C1090.92 225.001 1095.56 220.048 1101.56 216.496C1107.56 212.91 1114.7 211.116 1122.97 211.116C1130.11 211.116 1136.36 212.413 1141.72 215.005C1147.08 217.597 1151.33 221.237 1154.45 225.925C1157.58 230.612 1159.3 236.116 1159.62 242.438H1138.21C1137.6 238.354 1136 235.069 1133.41 232.583C1130.85 230.062 1127.5 228.801 1123.34 228.801C1119.83 228.801 1116.76 229.76 1114.13 231.678C1111.54 233.56 1109.51 236.312 1108.06 239.934C1106.6 243.556 1105.87 247.942 1105.87 253.091C1105.87 258.311 1106.58 262.75 1108 266.408C1109.46 270.065 1111.5 272.853 1114.13 274.771C1116.76 276.688 1119.83 277.647 1123.34 277.647C1125.94 277.647 1128.26 277.114 1130.32 276.049C1132.42 274.984 1134.14 273.439 1135.49 271.415C1136.87 269.355 1137.78 266.887 1138.21 264.011H1159.62C1159.26 270.261 1157.56 275.765 1154.5 280.523C1151.49 285.246 1147.31 288.94 1141.99 291.603C1136.66 294.266 1130.36 295.598 1123.08 295.598ZM1217.67 212.182V229.227H1168.39V212.182H1217.67ZM1179.58 192.58H1202.27V268.858C1202.27 270.953 1202.59 272.587 1203.23 273.759C1203.87 274.895 1204.76 275.694 1205.89 276.156C1207.07 276.617 1208.42 276.848 1209.94 276.848C1211.01 276.848 1212.07 276.759 1213.14 276.582C1214.2 276.369 1215.02 276.209 1215.59 276.102L1219.16 292.988C1218.02 293.343 1216.42 293.751 1214.36 294.213C1212.3 294.71 1209.8 295.012 1206.85 295.119C1201.38 295.332 1196.59 294.604 1192.47 292.935C1188.39 291.266 1185.21 288.673 1182.94 285.158C1180.66 281.642 1179.54 277.203 1179.58 271.841V192.58ZM1300.26 184.909H1323.32V255.754C1323.32 263.709 1321.42 270.669 1317.62 276.635C1313.86 282.601 1308.58 287.253 1301.8 290.591C1295.02 293.893 1287.12 295.545 1278.1 295.545C1269.04 295.545 1261.12 293.893 1254.34 290.591C1247.56 287.253 1242.28 282.601 1238.52 276.635C1234.76 270.669 1232.87 263.709 1232.87 255.754V184.909H1255.94V253.783C1255.94 257.938 1256.84 261.631 1258.66 264.863C1260.5 268.094 1263.09 270.634 1266.43 272.48C1269.77 274.327 1273.66 275.25 1278.1 275.25C1282.57 275.25 1286.46 274.327 1289.76 272.48C1293.1 270.634 1295.68 268.094 1297.49 264.863C1299.33 261.631 1300.26 257.938 1300.26 253.783V184.909ZM1409.95 235.513L1389.17 236.791C1388.82 235.016 1388.05 233.418 1386.88 231.997C1385.71 230.541 1384.17 229.387 1382.25 228.535C1380.37 227.647 1378.11 227.203 1375.48 227.203C1371.97 227.203 1369 227.949 1366.59 229.44C1364.17 230.896 1362.97 232.849 1362.97 235.3C1362.97 237.253 1363.75 238.904 1365.31 240.254C1366.87 241.603 1369.55 242.686 1373.35 243.503L1388.16 246.486C1396.12 248.119 1402.05 250.747 1405.95 254.369C1409.86 257.991 1411.81 262.75 1411.81 268.645C1411.81 274.007 1410.23 278.712 1407.07 282.761C1403.95 286.809 1399.65 289.969 1394.18 292.242C1388.75 294.479 1382.48 295.598 1375.38 295.598C1364.55 295.598 1355.92 293.343 1349.49 288.833C1343.1 284.288 1339.35 278.109 1338.25 270.296L1360.57 269.124C1361.24 272.427 1362.88 274.948 1365.47 276.688C1368.06 278.393 1371.38 279.245 1375.43 279.245C1379.41 279.245 1382.6 278.482 1385.02 276.955C1387.47 275.392 1388.71 273.386 1388.75 270.935C1388.71 268.876 1387.84 267.189 1386.14 265.875C1384.43 264.526 1381.8 263.496 1378.25 262.786L1364.08 259.962C1356.09 258.364 1350.15 255.594 1346.24 251.653C1342.37 247.711 1340.43 242.686 1340.43 236.578C1340.43 231.322 1341.85 226.795 1344.69 222.995C1347.57 219.195 1351.6 216.266 1356.79 214.206C1362.01 212.146 1368.11 211.116 1375.11 211.116C1385.44 211.116 1393.58 213.3 1399.51 217.668C1405.47 222.036 1408.95 227.984 1409.95 235.513Z" fill="white"/>
</svg>
