<?xml version="1.0" encoding="UTF-8"?>
<svg version="1.1" viewBox="0 0 2048 1051" width="1280" height="1280" xmlns="http://www.w3.org/2000/svg">
<path transform="translate(147,104)" d="m0 0h1132l13 2 12 5 14 9 8 8 9 14 6 18 1 15v675l-1 19-4 15-7 13-8 10-8 7-14 8-16 4-11 1h-1139l-14-3-10-4-11-8-11-11-8-13-4-11-2-13v-699l4-19 7-17-2 1h-6l-1-2 11-1 2-4 5-5 12-6 12-5 10-2zm-8 43-9 3-8 8-4 8-1 4-1 46v626l1 20 3 9 5 5 9 6 7 2 14 1h234l1-1 2-31 6-34 8-31 9-27 10-24 14-28 10-16 12-17 11-14 9-10 21-21 14-11 14-10 18-11 24-12 21-8 23-7 29-6 21-3 37-3 36 3 35 6 31 8 26 9 30 13 20 11 21 14 13 10 13 11 12 11 7 8 12 14 12 17 12 20 11 23 10 27 7 26 4 21 3 32 2 41h231l24-1 10-4 6-4 5-7 2-7v-694l-4-9-7-8-5-3-6-1z" fill="#FD4858"/>
<path transform="translate(679,175)" d="m0 0h52l20 3 18 6 17 8 16 10 14 11 10 9 8 8 13 17 9 15 9 19 6 18 4 19 1 8v38l-3 19-5 18-8 19-11 20-10 13-11 13-7 7-17 13-14 9-16 8-15 6-19 5-12 2-11 1h-27l-21-3-21-6-21-9-17-10-13-10-13-12-8-8-11-14-9-14-8-15-7-19-4-15-3-17v-40l5-25 7-21 8-17 10-16 9-12 12-13 13-12 21-14 17-9 19-7 14-3z" fill="#FD4858"/>
<path transform="translate(1435,693)" d="m0 0h172l10 2 11 7 6 8 5 11v174l-4 10-7 10-11 7-2 1-11 1h-164l-9-2-10-6-7-7-4-8-1-5v-177l5-10 5-6 11-8z" fill="#FD4858"/>
<path transform="translate(1439,137)" d="m0 0h157l19 1 8 4 9 8 6 12 1 4v173l-5 12-5 7-11 7-5 2-11 1h-156l-12-1-10-5-9-8-5-9-1-5v-177l3-7 6-8 8-7 6-3z" fill="#FD4858"/>
<path transform="translate(1523,413)" d="m0 0h62l25 1 13 5 9 8 6 12 2 13v33l-1 131-5 12-6 8-8 6-4 1-13 1h-167l-8-2-10-9-7-9-2-6v-179l6-10 5-6 11-7 7-2z" fill="#FD4858"/>
<path transform="translate(1731,693)" d="m0 0h173l10 2 10 7 7 8 4 12v170l-2 10-5 9-9 8-9 4-10 1h-165l-9-2-11-8-7-9-2-6v-183l4-6 6-7 12-9z" fill="#FD4858"/>
<path transform="translate(1808,413)" d="m0 0h69l29 1 10 3 8 6 7 8 3 7 1 5v170l-2 10-7 11-7 6-7 3-11 1h-168l-8-2-8-6-8-9-3-7v-183l4-7 5-6 10-6 10-4z" fill="#FD4858"/>
<path transform="translate(1739,135)" d="m0 0h161l13 2 10 5 7 8 4 9 1 6v168l-2 11-4 8-7 7-5 3-14 3h-167l-12-3-8-6-7-8-3-7v-182l5-10 8-8 8-4z" fill="#FD4858"/>
<path transform="translate(101,114)" d="m0 0 3 1-14 11-5 4h-8l-1-2 11-1 2-4 5-5z" fill="#FEFEFE"/>
</svg>
